<?xml version="1.0" encoding="UTF-8" standalone="no"?>
<!-- Created with Inkscape (http://www.inkscape.org/) -->

<svg
   xmlns:dc="http://purl.org/dc/elements/1.1/"
   xmlns:cc="http://creativecommons.org/ns#"
   xmlns:rdf="http://www.w3.org/1999/02/22-rdf-syntax-ns#"
   xmlns:svg="http://www.w3.org/2000/svg"
   xmlns="http://www.w3.org/2000/svg"
   xmlns:sodipodi="http://sodipodi.sourceforge.net/DTD/sodipodi-0.dtd"
   xmlns:inkscape="http://www.inkscape.org/namespaces/inkscape"
   width="60.843655mm"
   height="32.557034mm"
   viewBox="0 0 60.843655 32.557034"
   version="1.1"
   id="svg1869"
   inkscape:version="0.92.4 5da689c313, 2019-01-14"
   sodipodi:docname="sr-latch.svg">
  <defs
     id="defs1863">
    <clipPath
       clipPathUnits="userSpaceOnUse"
       id="clipPath390">
      <path
         d="M 1.0729e-5,0 H 720.00001 V 540 H 1.0729e-5 Z"
         id="path388"
         inkscape:connector-curvature="0"
         style="clip-rule:evenodd" />
    </clipPath>
    <clipPath
       clipPathUnits="userSpaceOnUse"
       id="clipPath378">
      <path
         d="M 1.0729e-5,0 H 720.00001 V 540 H 1.0729e-5 Z"
         id="path376"
         inkscape:connector-curvature="0"
         style="clip-rule:evenodd" />
    </clipPath>
    <clipPath
       clipPathUnits="userSpaceOnUse"
       id="clipPath366">
      <path
         d="M 1.0729e-5,0 H 720.00001 V 540 H 1.0729e-5 Z"
         id="path364"
         inkscape:connector-curvature="0"
         style="clip-rule:evenodd" />
    </clipPath>
    <clipPath
       clipPathUnits="userSpaceOnUse"
       id="clipPath354">
      <path
         d="M 1.0729e-5,0 H 720.00001 V 540 H 1.0729e-5 Z"
         id="path352"
         inkscape:connector-curvature="0"
         style="clip-rule:evenodd" />
    </clipPath>
    <clipPath
       clipPathUnits="userSpaceOnUse"
       id="clipPath320">
      <path
         d="M 6.1035e-5,540 H 720 V 1.8311e-4 H 7.6294e-5"
         id="path318"
         inkscape:connector-curvature="0"
         style="clip-rule:evenodd" />
    </clipPath>
    <clipPath
       clipPathUnits="userSpaceOnUse"
       id="clipPath310">
      <path
         d="M 4.5776e-5,540 H 720 V 1.8311e-4 H 6.1035e-5"
         id="path308"
         inkscape:connector-curvature="0"
         style="clip-rule:evenodd" />
    </clipPath>
    <clipPath
       clipPathUnits="userSpaceOnUse"
       id="clipPath296">
      <path
         d="M 1.5259e-5,540 H 720 V 1.8311e-4 L 3.0518e-5,1.2207e-4"
         id="path294"
         inkscape:connector-curvature="0"
         style="clip-rule:evenodd" />
    </clipPath>
    <clipPath
       clipPathUnits="userSpaceOnUse"
       id="clipPath286">
      <path
         d="M 1.5259e-5,540 H 720 V 1.8311e-4 L 3.0518e-5,1.2207e-4"
         id="path284"
         inkscape:connector-curvature="0"
         style="clip-rule:evenodd" />
    </clipPath>
  </defs>
  <sodipodi:namedview
     id="base"
     pagecolor="#ffffff"
     bordercolor="#666666"
     borderopacity="1.0"
     inkscape:pageopacity="0.0"
     inkscape:pageshadow="2"
     inkscape:zoom="0.35"
     inkscape:cx="-693.5913"
     inkscape:cy="501.5251"
     inkscape:document-units="mm"
     inkscape:current-layer="layer1"
     showgrid="false"
     fit-margin-top="0"
     fit-margin-left="0"
     fit-margin-right="0"
     fit-margin-bottom="0"
     inkscape:window-width="1916"
     inkscape:window-height="1006"
     inkscape:window-x="0"
     inkscape:window-y="35"
     inkscape:window-maximized="1" />
  <metadata
     id="metadata1866">
    <rdf:RDF>
      <cc:Work
         rdf:about="">
        <dc:format>image/svg+xml</dc:format>
        <dc:type
           rdf:resource="http://purl.org/dc/dcmitype/StillImage" />
        <dc:title></dc:title>
      </cc:Work>
    </rdf:RDF>
  </metadata>
  <g
     inkscape:label="Layer 1"
     inkscape:groupmode="layer"
     id="layer1"
     transform="translate(-102.62579,-248.97148)">
    <path
       d="m 122.62303,270.54831 c 1.05833,1.76389 2.11667,3.52778 2.11667,5.29167 0,1.76389 -1.76389,4.40972 -2.11667,5.29166"
       style="fill:none;stroke:#000000;stroke-width:0.79374999;stroke-linecap:butt;stroke-linejoin:round;stroke-miterlimit:10;stroke-dasharray:none;stroke-opacity:1"
       id="path260"
       inkscape:connector-curvature="0" />
    <path
       d="m 122.62303,270.54831 h 5.02708"
       style="fill:none;stroke:#000000;stroke-width:0.79374999;stroke-linecap:butt;stroke-linejoin:round;stroke-miterlimit:10;stroke-dasharray:none;stroke-opacity:1"
       id="path262"
       inkscape:connector-curvature="0" />
    <path
       d="m 122.62303,281.13164 h 5.02708"
       style="fill:none;stroke:#000000;stroke-width:0.79374999;stroke-linecap:butt;stroke-linejoin:round;stroke-miterlimit:10;stroke-dasharray:none;stroke-opacity:1"
       id="path264"
       inkscape:connector-curvature="0" />
    <path
       d="m 127.65011,270.54831 c 2.46945,0.48331 4.93889,0.97014 6.35,1.94028 1.41111,0.97014 1.76389,2.42358 2.11667,3.88055"
       style="fill:none;stroke:#000000;stroke-width:0.79374999;stroke-linecap:butt;stroke-linejoin:round;stroke-miterlimit:10;stroke-dasharray:none;stroke-opacity:1"
       id="path266"
       inkscape:connector-curvature="0" />
    <path
       d="m 127.65011,281.13164 c 2.46945,-0.48683 4.93889,-0.97014 6.35,-1.94027 1.41111,-0.97014 1.76389,-2.42711 2.11667,-3.88056"
       style="fill:none;stroke:#000000;stroke-width:0.79374999;stroke-linecap:butt;stroke-linejoin:round;stroke-miterlimit:10;stroke-dasharray:none;stroke-opacity:1"
       id="path268"
       inkscape:connector-curvature="0" />
    <path
       d="m 136.11678,275.70592 c 0,-0.94897 0.76905,-1.71803 1.71803,-1.71803 0.94897,0 1.72155,0.76906 1.72155,1.71803 0,0.94897 -0.77258,1.72156 -1.72155,1.72156 -0.94898,0 -1.71803,-0.77259 -1.71803,-1.72156 z"
       style="fill:none;stroke:#292934;stroke-width:0.79374999;stroke-linecap:butt;stroke-linejoin:round;stroke-miterlimit:10;stroke-dasharray:none;stroke-opacity:1"
       id="path270"
       inkscape:connector-curvature="0" />
    <path
       d="m 108.73064,251.36425 h 14.81667"
       style="fill:none;stroke:#292934;stroke-width:0.52916664;stroke-linecap:butt;stroke-linejoin:round;stroke-miterlimit:10;stroke-dasharray:none;stroke-opacity:1"
       id="path272"
       inkscape:connector-curvature="0" />
    <path
       d="m 108.73064,278.88092 h 14.81667"
       style="fill:none;stroke:#292934;stroke-width:0.52916664;stroke-linecap:butt;stroke-linejoin:round;stroke-miterlimit:10;stroke-dasharray:none;stroke-opacity:1"
       id="path274"
       inkscape:connector-curvature="0" />
    <path
       d="m 117.19731,257.71425 h 6.35"
       style="fill:none;stroke:#292934;stroke-width:0.52916664;stroke-linecap:butt;stroke-linejoin:round;stroke-miterlimit:10;stroke-dasharray:none;stroke-opacity:1"
       id="path276"
       inkscape:connector-curvature="0" />
    <path
       d="m 117.19731,272.53092 h 6.35"
       style="fill:none;stroke:#292934;stroke-width:0.52916664;stroke-linecap:butt;stroke-linejoin:round;stroke-miterlimit:10;stroke-dasharray:none;stroke-opacity:1"
       id="path278"
       inkscape:connector-curvature="0" />
    <g
       transform="matrix(0.35277777,0,0,-0.35277777,55.284807,375.18925)"
       id="g280">
      <g
         id="g282"
         clip-path="url(#clipPath286)">
        <path
           d="M 175.5,333 V 321"
           style="fill:none;stroke:#292934;stroke-width:1.5;stroke-linecap:butt;stroke-linejoin:round;stroke-miterlimit:10;stroke-dasharray:none;stroke-opacity:1"
           id="path288"
           inkscape:connector-curvature="0" />
      </g>
    </g>
    <g
       transform="matrix(0.35277777,0,0,-0.35277777,55.284807,375.18925)"
       id="g290">
      <g
         id="g292"
         clip-path="url(#clipPath296)">
        <path
           d="M 175.5,303 V 291"
           style="fill:none;stroke:#292934;stroke-width:1.5;stroke-linecap:butt;stroke-linejoin:round;stroke-miterlimit:10;stroke-dasharray:none;stroke-opacity:1"
           id="path298"
           inkscape:connector-curvature="0" />
      </g>
    </g>
    <path
       d="m 139.15772,254.27467 h 14.81667"
       style="fill:none;stroke:#292934;stroke-width:0.52916664;stroke-linecap:butt;stroke-linejoin:round;stroke-miterlimit:10;stroke-dasharray:none;stroke-opacity:1"
       id="path300"
       inkscape:connector-curvature="0" />
    <path
       d="m 139.95147,275.70592 h 14.81667"
       style="fill:none;stroke:#292934;stroke-width:0.52916664;stroke-linecap:butt;stroke-linejoin:round;stroke-miterlimit:10;stroke-dasharray:none;stroke-opacity:1"
       id="path302"
       inkscape:connector-curvature="0" />
    <g
       transform="matrix(0.35277777,0,0,-0.35277777,55.284807,375.18925)"
       id="g304">
      <g
         id="g306"
         clip-path="url(#clipPath310)">
        <path
           d="M 253.5,299.25 V 280.5"
           style="fill:none;stroke:#292934;stroke-width:1.5;stroke-linecap:butt;stroke-linejoin:round;stroke-miterlimit:10;stroke-dasharray:none;stroke-opacity:1"
           id="path312"
           inkscape:connector-curvature="0" />
      </g>
    </g>
    <g
       transform="matrix(0.35277777,0,0,-0.35277777,55.284807,375.18925)"
       id="g314">
      <g
         id="g316"
         clip-path="url(#clipPath320)">
        <path
           d="M 254.25,342 V 324.75"
           style="fill:none;stroke:#292934;stroke-width:1.5;stroke-linecap:butt;stroke-linejoin:round;stroke-miterlimit:10;stroke-dasharray:none;stroke-opacity:1"
           id="path322"
           inkscape:connector-curvature="0" />
      </g>
    </g>
    <path
       d="m 122.09386,249.38164 c 0.92428,1.76389 1.85209,3.52778 1.85209,5.29167 0,1.76389 -1.54517,4.40972 -1.85209,5.29167"
       style="fill:none;stroke:#000000;stroke-width:0.79374999;stroke-linecap:butt;stroke-linejoin:round;stroke-miterlimit:10;stroke-dasharray:none;stroke-opacity:1"
       id="path324"
       inkscape:connector-curvature="0" />
    <path
       d="m 122.09386,249.38164 h 4.7625"
       style="fill:none;stroke:#000000;stroke-width:0.79374999;stroke-linecap:butt;stroke-linejoin:round;stroke-miterlimit:10;stroke-dasharray:none;stroke-opacity:1"
       id="path326"
       inkscape:connector-curvature="0" />
    <path
       d="m 122.09386,259.96498 h 4.7625"
       style="fill:none;stroke:#000000;stroke-width:0.79374999;stroke-linecap:butt;stroke-linejoin:round;stroke-miterlimit:10;stroke-dasharray:none;stroke-opacity:1"
       id="path328"
       inkscape:connector-curvature="0" />
    <path
       d="m 126.85636,249.38164 c 2.54353,0.48331 5.09058,0.97014 6.54756,1.94028 1.45344,0.97014 1.8168,2.42358 2.18369,3.88056"
       style="fill:none;stroke:#000000;stroke-width:0.79374999;stroke-linecap:butt;stroke-linejoin:round;stroke-miterlimit:10;stroke-dasharray:none;stroke-opacity:1"
       id="path330"
       inkscape:connector-curvature="0" />
    <path
       d="m 126.85636,259.96498 c 2.54353,-0.48684 5.09058,-0.97014 6.54756,-1.94028 1.45344,-0.97014 1.8168,-2.42711 2.18369,-3.88056"
       style="fill:none;stroke:#000000;stroke-width:0.79374999;stroke-linecap:butt;stroke-linejoin:round;stroke-miterlimit:10;stroke-dasharray:none;stroke-opacity:1"
       id="path332"
       inkscape:connector-curvature="0" />
    <path
       d="m 135.58761,254.53925 c 0,-0.94897 0.76906,-1.71802 1.71803,-1.71802 0.94897,0 1.72155,0.76905 1.72155,1.71802 0,0.94898 -0.77258,1.72156 -1.72155,1.72156 -0.94897,0 -1.71803,-0.77258 -1.71803,-1.72156 z"
       style="fill:none;stroke:#292934;stroke-width:0.79374999;stroke-linecap:butt;stroke-linejoin:round;stroke-miterlimit:10;stroke-dasharray:none;stroke-opacity:1"
       id="path334"
       inkscape:connector-curvature="0" />
    <path
       d="m 116.93272,261.683 27.78125,7.9375"
       style="fill:none;stroke:#292934;stroke-width:0.52916664;stroke-linecap:butt;stroke-linejoin:round;stroke-miterlimit:10;stroke-dasharray:none;stroke-opacity:1"
       id="path336"
       inkscape:connector-curvature="0" />
    <path
       d="m 144.71397,260.62467 -27.78125,7.9375"
       style="fill:none;stroke:#292934;stroke-width:0.52916664;stroke-linecap:butt;stroke-linejoin:round;stroke-miterlimit:10;stroke-dasharray:none;stroke-opacity:1"
       id="path338"
       inkscape:connector-curvature="0" />
    <path
       d="m 143.52511,275.97051 c 0,-0.51153 0.58914,-0.92428 1.32292,-0.92428 0.73025,0 1.32291,0.41275 1.32291,0.92428 0,0.51152 -0.59266,0.9278 -1.32291,0.9278 -0.73378,0 -1.32292,-0.41628 -1.32292,-0.9278 z"
       style="fill:#292934;fill-opacity:1;fill-rule:evenodd;stroke:none;stroke-width:0.35277775"
       id="path340"
       inkscape:connector-curvature="0" />
    <path
       d="m 143.52511,275.97051 c 0,-0.51153 0.58914,-0.92428 1.32292,-0.92428 0.73025,0 1.32291,0.41275 1.32291,0.92428 0,0.51152 -0.59266,0.9278 -1.32291,0.9278 -0.73378,0 -1.32292,-0.41628 -1.32292,-0.9278 z"
       style="fill:none;stroke:#292934;stroke-width:0.2648479;stroke-linecap:butt;stroke-linejoin:round;stroke-miterlimit:10;stroke-dasharray:none;stroke-opacity:1"
       id="path342"
       inkscape:connector-curvature="0" />
    <path
       d="m 143.52511,254.67331 c 0,-0.58561 0.58914,-1.05833 1.32292,-1.05833 0.73025,0 1.32291,0.47272 1.32291,1.05833 0,0.58208 -0.59266,1.05833 -1.32291,1.05833 -0.73378,0 -1.32292,-0.47625 -1.32292,-1.05833 z"
       style="fill:#292934;fill-opacity:1;fill-rule:evenodd;stroke:none;stroke-width:0.35277775"
       id="path344"
       inkscape:connector-curvature="0" />
    <path
       d="m 143.52511,254.67331 c 0,-0.58561 0.58914,-1.05833 1.32292,-1.05833 0.73025,0 1.32291,0.47272 1.32291,1.05833 0,0.58208 -0.59266,1.05833 -1.32291,1.05833 -0.73378,0 -1.32292,-0.47625 -1.32292,-1.05833 z"
       style="fill:none;stroke:#292934;stroke-width:0.2648479;stroke-linecap:butt;stroke-linejoin:round;stroke-miterlimit:10;stroke-dasharray:none;stroke-opacity:1"
       id="path346"
       inkscape:connector-curvature="0" />
    <g
       transform="matrix(0.35277777,0,0,-0.35277777,55.284807,375.18925)"
       id="g348">
      <g
         id="g350"
         clip-path="url(#clipPath354)">
        <text
           transform="matrix(1,0,0,-1,133.35,344.88)"
           style="font-style:italic;font-variant:normal;font-weight:normal;font-size:18.02499962px;font-family:Arial;-inkscape-font-specification:Arial-ItalicMT;writing-mode:lr-tb;fill:#292934;fill-opacity:1;fill-rule:nonzero;stroke:none"
           id="text358">
          <tspan
             x="0"
             y="0"
             id="tspan356">R</tspan>
        </text>
      </g>
    </g>
    <g
       transform="matrix(0.35277777,0,0,-0.35277777,55.284807,375.18925)"
       id="g360">
      <g
         id="g362"
         clip-path="url(#clipPath366)">
        <text
           transform="matrix(1,0,0,-1,134.48,265.9)"
           style="font-style:italic;font-variant:normal;font-weight:normal;font-size:18.02499962px;font-family:Arial;-inkscape-font-specification:Arial-ItalicMT;writing-mode:lr-tb;fill:#292934;fill-opacity:1;fill-rule:nonzero;stroke:none"
           id="text370">
          <tspan
             x="0"
             y="0"
             id="tspan368">S</tspan>
        </text>
      </g>
    </g>
    <g
       transform="matrix(0.35277777,0,0,-0.35277777,55.284807,375.18925)"
       id="g372">
      <g
         id="g374"
         clip-path="url(#clipPath378)">
        <text
           transform="matrix(1,0,0,-1,289.38,335.38)"
           style="font-style:italic;font-variant:normal;font-weight:normal;font-size:18.02499962px;font-family:Arial;-inkscape-font-specification:Arial-ItalicMT;writing-mode:lr-tb;fill:#292934;fill-opacity:1;fill-rule:nonzero;stroke:none"
           id="text382">
          <tspan
             x="0"
             y="0"
             id="tspan380">Q</tspan>
        </text>
      </g>
    </g>
    <g
       transform="matrix(0.35277777,0,0,-0.35277777,55.284807,375.18925)"
       id="g384">
      <g
         id="g386"
         clip-path="url(#clipPath390)">
        <text
           transform="matrix(1,0,0,-1,287.75,276.27)"
           style="font-style:italic;font-variant:normal;font-weight:normal;font-size:18.02499962px;font-family:Arial;-inkscape-font-specification:Arial-ItalicMT;writing-mode:lr-tb;fill:#292934;fill-opacity:1;fill-rule:nonzero;stroke:none"
           id="text394">
          <tspan
             x="0 14.25045"
             y="0"
             sodipodi:role="line"
             id="tspan392">Q'</tspan>
        </text>
      </g>
    </g>
  </g>
</svg>
