<?xml version="1.0" encoding="UTF-8" standalone="no"?>
<!-- Created with Inkscape (http://www.inkscape.org/) -->

<svg
   xmlns:dc="http://purl.org/dc/elements/1.1/"
   xmlns:cc="http://creativecommons.org/ns#"
   xmlns:rdf="http://www.w3.org/1999/02/22-rdf-syntax-ns#"
   xmlns:svg="http://www.w3.org/2000/svg"
   xmlns="http://www.w3.org/2000/svg"
   xmlns:sodipodi="http://sodipodi.sourceforge.net/DTD/sodipodi-0.dtd"
   xmlns:inkscape="http://www.inkscape.org/namespaces/inkscape"
   width="121.68999mm"
   height="38.893738mm"
   viewBox="0 0 121.68999 38.893738"
   version="1.1"
   id="svg8911"
   inkscape:version="0.92.4 5da689c313, 2019-01-14"
   sodipodi:docname="t-ff.svg">
  <defs
     id="defs8905">
    <clipPath
       clipPathUnits="userSpaceOnUse"
       id="clipPath8210">
      <path
         d="M 3.0518e-5,540 H 720 V 1.8311e-4 L 4.5776e-5,1.2207e-4"
         id="path8208"
         inkscape:connector-curvature="0"
         style="clip-rule:evenodd" />
    </clipPath>
    <clipPath
       clipPathUnits="userSpaceOnUse"
       id="clipPath8200">
      <path
         d="M 3.0518e-5,540 H 720 V 1.8311e-4 L 6.1035e-5,1.2207e-4"
         id="path8198"
         inkscape:connector-curvature="0"
         style="clip-rule:evenodd" />
    </clipPath>
    <clipPath
       clipPathUnits="userSpaceOnUse"
       id="clipPath8186">
      <path
         d="M 6.1035e-5,540 H 720 V 1.8311e-4 L 9.1553e-5,1.2207e-4"
         id="path8184"
         inkscape:connector-curvature="0"
         style="clip-rule:evenodd" />
    </clipPath>
    <clipPath
       clipPathUnits="userSpaceOnUse"
       id="clipPath8168">
      <path
         d="M 1.0729e-5,0 H 720.00001 V 540 H 1.0729e-5 Z"
         id="path8166"
         inkscape:connector-curvature="0"
         style="clip-rule:evenodd" />
    </clipPath>
    <clipPath
       clipPathUnits="userSpaceOnUse"
       id="clipPath8156">
      <path
         d="M 1.0729e-5,0 H 720.00001 V 540 H 1.0729e-5 Z"
         id="path8154"
         inkscape:connector-curvature="0"
         style="clip-rule:evenodd" />
    </clipPath>
    <clipPath
       clipPathUnits="userSpaceOnUse"
       id="clipPath8144">
      <path
         d="M 1.0729e-5,0 H 720.00001 V 540 H 1.0729e-5 Z"
         id="path8142"
         inkscape:connector-curvature="0"
         style="clip-rule:evenodd" />
    </clipPath>
    <clipPath
       clipPathUnits="userSpaceOnUse"
       id="clipPath8130">
      <path
         d="M 1.0729e-5,0 H 720.00001 V 540 H 1.0729e-5 Z"
         id="path8128"
         inkscape:connector-curvature="0"
         style="clip-rule:evenodd" />
    </clipPath>
    <clipPath
       clipPathUnits="userSpaceOnUse"
       id="clipPath8114">
      <path
         d="M 6.1035e-5,540 H 720 V 1.8311e-4 L 9.1553e-5,1.2207e-4"
         id="path8112"
         inkscape:connector-curvature="0"
         style="clip-rule:evenodd" />
    </clipPath>
    <clipPath
       clipPathUnits="userSpaceOnUse"
       id="clipPath8048">
      <path
         d="M 6.1035e-5,540 H 720 V 1.8311e-4 H 9.1553e-5"
         id="path8046"
         inkscape:connector-curvature="0"
         style="clip-rule:evenodd" />
    </clipPath>
    <clipPath
       clipPathUnits="userSpaceOnUse"
       id="clipPath8038">
      <path
         d="M 3.0518e-5,540 H 720 V 6.1035e-5 H 3.0518e-5"
         id="path8036"
         inkscape:connector-curvature="0"
         style="clip-rule:evenodd" />
    </clipPath>
    <clipPath
       clipPathUnits="userSpaceOnUse"
       id="clipPath8024">
      <path
         d="M 6.1035e-5,540 H 720 V 1.8311e-4 H 9.1553e-5"
         id="path8022"
         inkscape:connector-curvature="0"
         style="clip-rule:evenodd" />
    </clipPath>
    <clipPath
       clipPathUnits="userSpaceOnUse"
       id="clipPath8014">
      <path
         d="M 6.1035e-5,540 H 720 V 1.8311e-4 L 9.1553e-5,1.2207e-4"
         id="path8012"
         inkscape:connector-curvature="0"
         style="clip-rule:evenodd" />
    </clipPath>
    <clipPath
       clipPathUnits="userSpaceOnUse"
       id="clipPath7994">
      <path
         d="M 1.0729e-5,0 H 720.00001 V 540 H 1.0729e-5 Z"
         id="path7992"
         inkscape:connector-curvature="0"
         style="clip-rule:evenodd" />
    </clipPath>
    <clipPath
       clipPathUnits="userSpaceOnUse"
       id="clipPath7982">
      <path
         d="M 1.0729e-5,0 H 720.00001 V 540 H 1.0729e-5 Z"
         id="path7980"
         inkscape:connector-curvature="0"
         style="clip-rule:evenodd" />
    </clipPath>
    <clipPath
       clipPathUnits="userSpaceOnUse"
       id="clipPath7970">
      <path
         d="M 1.0729e-5,0 H 720.00001 V 540 H 1.0729e-5 Z"
         id="path7968"
         inkscape:connector-curvature="0"
         style="clip-rule:evenodd" />
    </clipPath>
  </defs>
  <sodipodi:namedview
     id="base"
     pagecolor="#ffffff"
     bordercolor="#666666"
     borderopacity="1.0"
     inkscape:pageopacity="0.0"
     inkscape:pageshadow="2"
     inkscape:zoom="0.35"
     inkscape:cx="-352.8918"
     inkscape:cy="204.92854"
     inkscape:document-units="mm"
     inkscape:current-layer="layer1"
     showgrid="false"
     fit-margin-top="0"
     fit-margin-left="0"
     fit-margin-right="0"
     fit-margin-bottom="0"
     inkscape:window-width="1916"
     inkscape:window-height="1006"
     inkscape:window-x="0"
     inkscape:window-y="35"
     inkscape:window-maximized="1" />
  <metadata
     id="metadata8908">
    <rdf:RDF>
      <cc:Work
         rdf:about="">
        <dc:format>image/svg+xml</dc:format>
        <dc:type
           rdf:resource="http://purl.org/dc/dcmitype/StillImage" />
        <dc:title></dc:title>
      </cc:Work>
    </rdf:RDF>
  </metadata>
  <g
     inkscape:label="Layer 1"
     inkscape:groupmode="layer"
     id="layer1"
     transform="translate(-12.482384,-164.16027)">
    <g
       transform="matrix(0.35277777,0,0,-0.35277777,-24.435758,291.42485)"
       id="g7964">
      <g
         id="g7966"
         clip-path="url(#clipPath7970)">
        <text
           transform="matrix(1,0,0,-1,115.32,336.63)"
           style="font-style:italic;font-variant:normal;font-weight:bold;font-size:14.27499962px;font-family:Arial;-inkscape-font-specification:Arial-BoldItalicMT;writing-mode:lr-tb;fill:#292934;fill-opacity:1;fill-rule:nonzero;stroke:none"
           id="text7974">
          <tspan
             x="0"
             y="0"
             id="tspan7972">T</tspan>
        </text>
      </g>
    </g>
    <g
       transform="matrix(0.35277777,0,0,-0.35277777,-24.435758,291.42485)"
       id="g7976">
      <g
         id="g7978"
         clip-path="url(#clipPath7982)">
        <text
           transform="matrix(1,0,0,-1,433.65,324.6)"
           style="font-style:italic;font-variant:normal;font-weight:bold;font-size:14.27499962px;font-family:Arial;-inkscape-font-specification:Arial-BoldItalicMT;writing-mode:lr-tb;fill:#292934;fill-opacity:1;fill-rule:nonzero;stroke:none"
           id="text7986">
          <tspan
             x="0"
             y="0"
             id="tspan7984">Q</tspan>
        </text>
      </g>
    </g>
    <g
       transform="matrix(0.35277777,0,0,-0.35277777,-24.435758,291.42485)"
       id="g7988">
      <g
         id="g7990"
         clip-path="url(#clipPath7994)">
        <text
           transform="matrix(1,0,0,-1,433.65,270.52)"
           style="font-style:italic;font-variant:normal;font-weight:bold;font-size:14.27499962px;font-family:Arial;-inkscape-font-specification:Arial-BoldItalicMT;writing-mode:lr-tb;fill:#292934;fill-opacity:1;fill-rule:nonzero;stroke:none"
           id="text7998">
          <tspan
             x="0 11.24995"
             y="0"
             sodipodi:role="line"
             id="tspan7996">Q'</tspan>
        </text>
      </g>
    </g>
    <path
       d="m 92.51007,172.62694 9.26042,0.26458"
       style="fill:none;stroke:#292934;stroke-width:0.52916664;stroke-linecap:butt;stroke-linejoin:round;stroke-miterlimit:10;stroke-dasharray:none;stroke-opacity:1"
       id="path8000"
       inkscape:connector-curvature="0" />
    <path
       d="m 92.51007,196.17485 9.525,0.26458"
       style="fill:none;stroke:#292934;stroke-width:0.52916664;stroke-linecap:butt;stroke-linejoin:round;stroke-miterlimit:10;stroke-dasharray:none;stroke-opacity:1"
       id="path8002"
       inkscape:connector-curvature="0" />
    <path
       d="m 97.537154,178.18319 4.233336,0.26458"
       style="fill:none;stroke:#292934;stroke-width:0.52916664;stroke-linecap:butt;stroke-linejoin:round;stroke-miterlimit:10;stroke-dasharray:none;stroke-opacity:1"
       id="path8004"
       inkscape:connector-curvature="0" />
    <path
       d="m 97.537154,190.6186 h 4.233336"
       style="fill:none;stroke:#292934;stroke-width:0.52916664;stroke-linecap:butt;stroke-linejoin:round;stroke-miterlimit:10;stroke-dasharray:none;stroke-opacity:1"
       id="path8006"
       inkscape:connector-curvature="0" />
    <g
       transform="matrix(0.35277777,0,0,-0.35277777,-24.435758,291.42485)"
       id="g8008">
      <g
         id="g8010"
         clip-path="url(#clipPath8014)">
        <path
           d="M 345.75,321 V 310.5"
           style="fill:none;stroke:#292934;stroke-width:1.5;stroke-linecap:butt;stroke-linejoin:round;stroke-miterlimit:10;stroke-dasharray:none;stroke-opacity:1"
           id="path8016"
           inkscape:connector-curvature="0" />
      </g>
    </g>
    <g
       transform="matrix(0.35277777,0,0,-0.35277777,-24.435758,291.42485)"
       id="g8018">
      <g
         id="g8020"
         clip-path="url(#clipPath8024)">
        <path
           d="m 345.75,295.5 v -9.75"
           style="fill:none;stroke:#292934;stroke-width:1.5;stroke-linecap:butt;stroke-linejoin:round;stroke-miterlimit:10;stroke-dasharray:none;stroke-opacity:1"
           id="path8026"
           inkscape:connector-curvature="0" />
      </g>
    </g>
    <path
       d="m 115.26423,175.53735 h 12.43542"
       style="fill:none;stroke:#292934;stroke-width:0.52916664;stroke-linecap:butt;stroke-linejoin:round;stroke-miterlimit:10;stroke-dasharray:none;stroke-opacity:1"
       id="path8028"
       inkscape:connector-curvature="0" />
    <path
       d="m 115.26423,193.52902 h 12.43542"
       style="fill:none;stroke:#292934;stroke-width:0.52916664;stroke-linecap:butt;stroke-linejoin:round;stroke-miterlimit:10;stroke-dasharray:none;stroke-opacity:1"
       id="path8030"
       inkscape:connector-curvature="0" />
    <g
       transform="matrix(0.35277777,0,0,-0.35277777,-24.435758,291.42485)"
       id="g8032">
      <g
         id="g8034"
         clip-path="url(#clipPath8038)">
        <path
           d="m 411,292.5 0.75,-39.75"
           style="fill:none;stroke:#292934;stroke-width:1.5;stroke-linecap:butt;stroke-linejoin:round;stroke-miterlimit:10;stroke-dasharray:none;stroke-opacity:1"
           id="path8040"
           inkscape:connector-curvature="0" />
      </g>
    </g>
    <g
       transform="matrix(0.35277777,0,0,-0.35277777,-24.435758,291.42485)"
       id="g8042">
      <g
         id="g8044"
         clip-path="url(#clipPath8048)">
        <path
           d="M 412.5,359.25 411.75,313.5"
           style="fill:none;stroke:#292934;stroke-width:1.5;stroke-linecap:butt;stroke-linejoin:round;stroke-miterlimit:10;stroke-dasharray:none;stroke-opacity:1"
           id="path8050"
           inkscape:connector-curvature="0" />
      </g>
    </g>
    <path
       d="m 97.27257,181.62277 23.28333,6.61458"
       style="fill:none;stroke:#292934;stroke-width:0.52916664;stroke-linecap:butt;stroke-linejoin:round;stroke-miterlimit:10;stroke-dasharray:none;stroke-opacity:1"
       id="path8052"
       inkscape:connector-curvature="0" />
    <path
       d="M 120.5559,180.56444 97.27257,187.4436"
       style="fill:none;stroke:#292934;stroke-width:0.52916664;stroke-linecap:butt;stroke-linejoin:round;stroke-miterlimit:10;stroke-dasharray:none;stroke-opacity:1"
       id="path8054"
       inkscape:connector-curvature="0" />
    <path
       d="m 119.63162,193.66307 c 0,-0.44097 0.47273,-0.79375 1.05834,-0.79375 0.58208,0 1.05833,0.35278 1.05833,0.79375 0,0.43745 -0.47625,0.79375 -1.05833,0.79375 -0.58561,0 -1.05834,-0.3563 -1.05834,-0.79375 z"
       style="fill:#292934;fill-opacity:1;fill-rule:evenodd;stroke:none;stroke-width:0.35277775"
       id="path8056"
       inkscape:connector-curvature="0" />
    <path
       d="m 119.63162,193.66307 c 0,-0.44097 0.47273,-0.79375 1.05834,-0.79375 0.58208,0 1.05833,0.35278 1.05833,0.79375 0,0.43745 -0.47625,0.79375 -1.05833,0.79375 -0.58561,0 -1.05834,-0.3563 -1.05834,-0.79375 z"
       style="fill:none;stroke:#292934;stroke-width:0.2648479;stroke-linecap:butt;stroke-linejoin:round;stroke-miterlimit:10;stroke-dasharray:none;stroke-opacity:1"
       id="path8058"
       inkscape:connector-curvature="0" />
    <path
       d="m 119.89621,175.93599 c 0,-0.44097 0.47272,-0.79375 1.05833,-0.79375 0.58208,0 1.05833,0.35278 1.05833,0.79375 0,0.43745 -0.47625,0.79375 -1.05833,0.79375 -0.58561,0 -1.05833,-0.3563 -1.05833,-0.79375 z"
       style="fill:#292934;fill-opacity:1;fill-rule:evenodd;stroke:none;stroke-width:0.35277775"
       id="path8060"
       inkscape:connector-curvature="0" />
    <path
       d="m 119.89621,175.93599 c 0,-0.44097 0.47272,-0.79375 1.05833,-0.79375 0.58208,0 1.05833,0.35278 1.05833,0.79375 0,0.43745 -0.47625,0.79375 -1.05833,0.79375 -0.58561,0 -1.05833,-0.3563 -1.05833,-0.79375 z"
       style="fill:none;stroke:#292934;stroke-width:0.2648479;stroke-linecap:butt;stroke-linejoin:round;stroke-miterlimit:10;stroke-dasharray:none;stroke-opacity:1"
       id="path8062"
       inkscape:connector-curvature="0" />
    <path
       d="m 104.28579,171.43807 c 0.79375,1.49931 1.5875,2.99862 1.5875,4.49792 0,1.49931 -1.32291,3.7465 -1.5875,4.49792"
       style="fill:none;stroke:#000000;stroke-width:0.79374999;stroke-linecap:butt;stroke-linejoin:round;stroke-miterlimit:10;stroke-dasharray:none;stroke-opacity:1"
       id="path8064"
       inkscape:connector-curvature="0" />
    <path
       d="m 104.28579,171.43807 h 3.96875"
       style="fill:none;stroke:#000000;stroke-width:0.79374999;stroke-linecap:butt;stroke-linejoin:round;stroke-miterlimit:10;stroke-dasharray:none;stroke-opacity:1"
       id="path8066"
       inkscape:connector-curvature="0" />
    <path
       d="m 104.28579,180.43391 h 3.96875"
       style="fill:none;stroke:#000000;stroke-width:0.79374999;stroke-linecap:butt;stroke-linejoin:round;stroke-miterlimit:10;stroke-dasharray:none;stroke-opacity:1"
       id="path8068"
       inkscape:connector-curvature="0" />
    <path
       d="m 108.25454,171.43807 c 2.159,0.39512 4.32153,0.79375 5.55625,1.5875 1.23472,0.79375 1.54164,1.98262 1.85208,3.175"
       style="fill:none;stroke:#000000;stroke-width:0.79374999;stroke-linecap:butt;stroke-linejoin:round;stroke-miterlimit:10;stroke-dasharray:none;stroke-opacity:1"
       id="path8070"
       inkscape:connector-curvature="0" />
    <path
       d="m 108.25454,180.43391 c 2.159,-0.41981 4.32153,-0.83961 5.55625,-1.6757 1.23472,-0.83961 1.54164,-2.0955 1.85208,-3.35139"
       style="fill:none;stroke:#000000;stroke-width:0.79374999;stroke-linecap:butt;stroke-linejoin:round;stroke-miterlimit:10;stroke-dasharray:none;stroke-opacity:1"
       id="path8072"
       inkscape:connector-curvature="0" />
    <path
       d="m 101.90454,173.42069 c 0,-0.80434 0.64911,-1.45345 1.45345,-1.45345 0.80433,0 1.45697,0.64911 1.45697,1.45345 0,0.80433 -0.65264,1.45697 -1.45697,1.45697 -0.80434,0 -1.45345,-0.65264 -1.45345,-1.45697 z"
       style="fill:none;stroke:#292934;stroke-width:0.79374999;stroke-linecap:butt;stroke-linejoin:round;stroke-miterlimit:10;stroke-dasharray:none;stroke-opacity:1"
       id="path8074"
       inkscape:connector-curvature="0" />
    <path
       d="m 101.90454,178.71235 c 0,-0.80433 0.64911,-1.45344 1.45345,-1.45344 0.80433,0 1.45697,0.64911 1.45697,1.45344 0,0.80434 -0.65264,1.45697 -1.45697,1.45697 -0.80434,0 -1.45345,-0.65263 -1.45345,-1.45697 z"
       style="fill:none;stroke:#292934;stroke-width:0.79374999;stroke-linecap:butt;stroke-linejoin:round;stroke-miterlimit:10;stroke-dasharray:none;stroke-opacity:1"
       id="path8076"
       inkscape:connector-curvature="0" />
    <path
       d="m 104.02121,189.42974 c 0.79375,1.45344 1.5875,2.91042 1.5875,4.36386 0,1.45697 -1.32292,3.63714 -1.5875,4.36739"
       style="fill:none;stroke:#000000;stroke-width:0.79374999;stroke-linecap:butt;stroke-linejoin:round;stroke-miterlimit:10;stroke-dasharray:none;stroke-opacity:1"
       id="path8078"
       inkscape:connector-curvature="0" />
    <path
       d="m 104.02121,189.42974 h 3.96875"
       style="fill:none;stroke:#000000;stroke-width:0.79374999;stroke-linecap:butt;stroke-linejoin:round;stroke-miterlimit:10;stroke-dasharray:none;stroke-opacity:1"
       id="path8080"
       inkscape:connector-curvature="0" />
    <path
       d="m 104.02121,198.16099 h 3.96875"
       style="fill:none;stroke:#000000;stroke-width:0.79374999;stroke-linecap:butt;stroke-linejoin:round;stroke-miterlimit:10;stroke-dasharray:none;stroke-opacity:1"
       id="path8082"
       inkscape:connector-curvature="0" />
    <path
       d="m 107.98996,189.42974 c 2.08139,0.39511 4.16631,0.79375 5.35516,1.5875 1.19239,0.79375 1.48873,1.98261 1.78859,3.175"
       style="fill:none;stroke:#000000;stroke-width:0.79374999;stroke-linecap:butt;stroke-linejoin:round;stroke-miterlimit:10;stroke-dasharray:none;stroke-opacity:1"
       id="path8084"
       inkscape:connector-curvature="0" />
    <path
       d="m 107.98996,198.16099 c 2.08139,-0.39864 4.16631,-0.79375 5.35516,-1.5875 1.19239,-0.79375 1.48873,-1.98614 1.78859,-3.175"
       style="fill:none;stroke:#000000;stroke-width:0.79374999;stroke-linecap:butt;stroke-linejoin:round;stroke-miterlimit:10;stroke-dasharray:none;stroke-opacity:1"
       id="path8086"
       inkscape:connector-curvature="0" />
    <path
       d="m 101.63996,191.41235 c 0,-0.80433 0.64911,-1.45344 1.45344,-1.45344 0.80434,0 1.45698,0.64911 1.45698,1.45344 0,0.80433 -0.65264,1.45697 -1.45698,1.45697 -0.80433,0 -1.45344,-0.65264 -1.45344,-1.45697 z"
       style="fill:none;stroke:#292934;stroke-width:0.79374999;stroke-linecap:butt;stroke-linejoin:round;stroke-miterlimit:10;stroke-dasharray:none;stroke-opacity:1"
       id="path8088"
       inkscape:connector-curvature="0" />
    <path
       d="m 101.63996,196.70402 c 0,-0.80434 0.64911,-1.45345 1.45344,-1.45345 0.80434,0 1.45698,0.64911 1.45698,1.45345 0,0.80433 -0.65264,1.45697 -1.45698,1.45697 -0.80433,0 -1.45344,-0.65264 -1.45344,-1.45697 z"
       style="fill:none;stroke:#292934;stroke-width:0.79374999;stroke-linecap:butt;stroke-linejoin:round;stroke-miterlimit:10;stroke-dasharray:none;stroke-opacity:1"
       id="path8090"
       inkscape:connector-curvature="0" />
    <path
       d="m 89.469127,172.89152 c 0,-0.80433 0.64911,-1.45345 1.453443,-1.45345 0.804334,0 1.456973,0.64912 1.456973,1.45345 0,0.80433 -0.652639,1.45697 -1.456973,1.45697 -0.804333,0 -1.453443,-0.65264 -1.453443,-1.45697 z"
       style="fill:none;stroke:#292934;stroke-width:0.79374999;stroke-linecap:butt;stroke-linejoin:round;stroke-miterlimit:10;stroke-dasharray:none;stroke-opacity:1"
       id="path8092"
       inkscape:connector-curvature="0" />
    <path
       d="m 77.562877,168.79224 h 5.686779 c 3.143248,0 5.690304,1.89442 5.690304,4.23333 0,2.33539 -2.547056,4.23334 -5.690304,4.23334 h -5.686779 z"
       style="fill:none;stroke:#292934;stroke-width:0.79374999;stroke-linecap:butt;stroke-linejoin:miter;stroke-miterlimit:8;stroke-dasharray:none;stroke-opacity:1"
       id="path8094"
       inkscape:connector-curvature="0" />
    <path
       d="m 89.469127,196.17485 c 0,-0.80433 0.64911,-1.45344 1.453443,-1.45344 0.804334,0 1.456973,0.64911 1.456973,1.45344 0,0.80433 -0.652639,1.45697 -1.456973,1.45697 -0.804333,0 -1.453443,-0.65264 -1.453443,-1.45697 z"
       style="fill:none;stroke:#292934;stroke-width:0.79374999;stroke-linecap:butt;stroke-linejoin:round;stroke-miterlimit:8;stroke-dasharray:none;stroke-opacity:1"
       id="path8096"
       inkscape:connector-curvature="0" />
    <path
       d="m 77.562877,192.07557 h 5.686779 c 3.143248,0 5.690304,1.89442 5.690304,4.23334 0,2.33539 -2.547056,4.23333 -5.690304,4.23333 h -5.686779 z"
       style="fill:none;stroke:#292934;stroke-width:0.79374999;stroke-linecap:butt;stroke-linejoin:miter;stroke-miterlimit:8;stroke-dasharray:none;stroke-opacity:1"
       id="path8098"
       inkscape:connector-curvature="0" />
    <path
       d="m 22.130907,169.9811 54.768749,0.26459"
       style="fill:none;stroke:#292934;stroke-width:0.52916664;stroke-linecap:butt;stroke-linejoin:round;stroke-miterlimit:8;stroke-dasharray:none;stroke-opacity:1"
       id="path8100"
       inkscape:connector-curvature="0" />
    <path
       d="M 28.480906,199.34985 77.95799,199.08527"
       style="fill:none;stroke:#292934;stroke-width:0.52916664;stroke-linecap:butt;stroke-linejoin:round;stroke-miterlimit:8;stroke-dasharray:none;stroke-opacity:1"
       id="path8102"
       inkscape:connector-curvature="0" />
    <path
       d="m 73.98924,175.80194 h 3.96875"
       style="fill:none;stroke:#292934;stroke-width:0.52916664;stroke-linecap:butt;stroke-linejoin:round;stroke-miterlimit:8;stroke-dasharray:none;stroke-opacity:1"
       id="path8104"
       inkscape:connector-curvature="0" />
    <path
       d="m 73.98924,193.7936 h 3.96875"
       style="fill:none;stroke:#292934;stroke-width:0.52916664;stroke-linecap:butt;stroke-linejoin:round;stroke-miterlimit:8;stroke-dasharray:none;stroke-opacity:1"
       id="path8106"
       inkscape:connector-curvature="0" />
    <g
       transform="matrix(0.35277777,0,0,-0.35277777,-24.435758,291.42485)"
       id="g8108">
      <g
         id="g8110"
         clip-path="url(#clipPath8114)">
        <path
           d="m 278.25,327.75 v -51"
           style="fill:none;stroke:#292934;stroke-width:1.5;stroke-linecap:butt;stroke-linejoin:round;stroke-miterlimit:8;stroke-dasharray:none;stroke-opacity:1"
           id="path8116"
           inkscape:connector-curvature="0" />
      </g>
    </g>
    <path
       d="m 60.760073,184.53319 13.49375,0.26458"
       style="fill:none;stroke:#292934;stroke-width:0.52916664;stroke-linecap:butt;stroke-linejoin:round;stroke-miterlimit:8;stroke-dasharray:none;stroke-opacity:1"
       id="path8118"
       inkscape:connector-curvature="0" />
    <path
       d="m 73.06496,185.19641 c 0,-0.44097 0.472723,-0.79375 1.058333,-0.79375 0.582084,0 1.058334,0.35278 1.058334,0.79375 0,0.43744 -0.47625,0.79375 -1.058334,0.79375 -0.58561,0 -1.058333,-0.35631 -1.058333,-0.79375 z"
       style="fill:#292934;fill-opacity:1;fill-rule:evenodd;stroke:none;stroke-width:0.35277775"
       id="path8120"
       inkscape:connector-curvature="0" />
    <path
       d="m 73.06496,185.19641 c 0,-0.44097 0.472723,-0.79375 1.058333,-0.79375 0.582084,0 1.058334,0.35278 1.058334,0.79375 0,0.43744 -0.47625,0.79375 -1.058334,0.79375 -0.58561,0 -1.058333,-0.35631 -1.058333,-0.79375 z"
       style="fill:none;stroke:#292934;stroke-width:0.2648479;stroke-linecap:butt;stroke-linejoin:round;stroke-miterlimit:8;stroke-dasharray:none;stroke-opacity:1"
       id="path8122"
       inkscape:connector-curvature="0" />
    <g
       transform="matrix(0.35277777,0,0,-0.35277777,-24.435758,291.42485)"
       id="g8124">
      <g
         id="g8126"
         clip-path="url(#clipPath8130)">
        <text
           transform="matrix(1,0,0,-1,103.3,294.55)"
           style="font-style:italic;font-variant:normal;font-weight:bold;font-size:14.25px;font-family:Arial;-inkscape-font-specification:Arial-BoldItalicMT;writing-mode:lr-tb;fill:#292934;fill-opacity:1;fill-rule:nonzero;stroke:none"
           id="text8134">
          <tspan
             x="0 10.5165 19.522499"
             y="0"
             sodipodi:role="line"
             id="tspan8132">CLK</tspan>
        </text>
      </g>
    </g>
    <path
       d="M 32.848295,194.19224 H 60.36496 v -19.05 H 32.848295 Z"
       style="fill:none;stroke:#292934;stroke-width:0.79374999;stroke-linecap:butt;stroke-linejoin:miter;stroke-miterlimit:8;stroke-dasharray:none;stroke-opacity:1"
       id="path8136"
       inkscape:connector-curvature="0" />
    <g
       transform="matrix(0.35277777,0,0,-0.35277777,-24.435758,291.42485)"
       id="g8138">
      <g
         id="g8140"
         clip-path="url(#clipPath8144)">
        <text
           transform="matrix(1,0,0,-1,178.43,314.1)"
           style="font-variant:normal;font-weight:bold;font-size:14.27499962px;font-family:Arial;-inkscape-font-specification:Arial-BoldMT;writing-mode:lr-tb;fill:#292934;fill-opacity:1;fill-rule:nonzero;stroke:none"
           id="text8148">
          <tspan
             x="0 9.7641001 18.771626 22.540224 30.80545 39.070675"
             y="0"
             sodipodi:role="line"
             id="tspan8146">Pulse</tspan>
        </text>
      </g>
    </g>
    <g
       transform="matrix(0.35277777,0,0,-0.35277777,-24.435758,291.42485)"
       id="g8150">
      <g
         id="g8152"
         clip-path="url(#clipPath8156)">
        <text
           transform="matrix(1,0,0,-1,164.93,299.08)"
           style="font-variant:normal;font-weight:bold;font-size:14.27499962px;font-family:Arial;-inkscape-font-specification:Arial-BoldMT;writing-mode:lr-tb;fill:#292934;fill-opacity:1;fill-rule:nonzero;stroke:none"
           id="text8160">
          <tspan
             x="0 4.4966249 10.47785 18.714525 27.693501 35.930176 39.684502 44.181126 47.935452 56.914425 65.893402"
             y="0"
             sodipodi:role="line"
             id="tspan8158">transition</tspan>
        </text>
      </g>
    </g>
    <g
       transform="matrix(0.35277777,0,0,-0.35277777,-24.435758,291.42485)"
       id="g8162">
      <g
         id="g8164"
         clip-path="url(#clipPath8168)">
        <text
           transform="matrix(1,0,0,-1,169.43,284.05)"
           style="font-variant:normal;font-weight:bold;font-size:14.27499962px;font-family:Arial;-inkscape-font-specification:Arial-BoldMT;writing-mode:lr-tb;fill:#292934;fill-opacity:1;fill-rule:nonzero;stroke:none"
           id="text8172">
          <tspan
             x="0 8.9789753 17.215651 21.712275 29.94895 38.185623 42.682251 51.661224"
             y="0"
             sodipodi:role="line"
             id="tspan8170">detector</tspan>
        </text>
      </g>
    </g>
    <path
       d="M 24.247573,185.59152 H 32.71424"
       style="fill:none;stroke:#292934;stroke-width:0.52916664;stroke-linecap:butt;stroke-linejoin:round;stroke-miterlimit:8;stroke-dasharray:none;stroke-opacity:1"
       id="path8174"
       inkscape:connector-curvature="0" />
    <path
       d="m 68.697573,164.68944 52.916657,-0.26459"
       style="fill:none;stroke:#292934;stroke-width:0.52916664;stroke-linecap:butt;stroke-linejoin:round;stroke-miterlimit:8;stroke-dasharray:none;stroke-opacity:1"
       id="path8176"
       inkscape:connector-curvature="0" />
    <path
       d="m 70.81424,202.78943 49.74166,-0.26458"
       style="fill:none;stroke:#292934;stroke-width:0.52916664;stroke-linecap:butt;stroke-linejoin:round;stroke-miterlimit:8;stroke-dasharray:none;stroke-opacity:1"
       id="path8178"
       inkscape:connector-curvature="0" />
    <g
       transform="matrix(0.35277777,0,0,-0.35277777,-24.435758,291.42485)"
       id="g8180">
      <g
         id="g8182"
         clip-path="url(#clipPath8186)">
        <path
           d="M 270,336 V 252"
           style="fill:none;stroke:#292934;stroke-width:1.5;stroke-linecap:butt;stroke-linejoin:round;stroke-miterlimit:8;stroke-dasharray:none;stroke-opacity:1"
           id="path8188"
           inkscape:connector-curvature="0" />
      </g>
    </g>
    <path
       d="m 70.81424,172.89152 h 6.35"
       style="fill:none;stroke:#292934;stroke-width:0.52916664;stroke-linecap:butt;stroke-linejoin:round;stroke-miterlimit:8;stroke-dasharray:none;stroke-opacity:1"
       id="path8190"
       inkscape:connector-curvature="0" />
    <path
       d="M 68.697573,196.17485 H 77.16424"
       style="fill:none;stroke:#292934;stroke-width:0.52916664;stroke-linecap:butt;stroke-linejoin:round;stroke-miterlimit:8;stroke-dasharray:none;stroke-opacity:1"
       id="path8192"
       inkscape:connector-curvature="0" />
    <g
       transform="matrix(0.35277777,0,0,-0.35277777,-24.435758,291.42485)"
       id="g8194">
      <g
         id="g8196"
         clip-path="url(#clipPath8200)">
        <path
           d="M 264,360 V 270"
           style="fill:none;stroke:#292934;stroke-width:1.5;stroke-linecap:butt;stroke-linejoin:round;stroke-miterlimit:8;stroke-dasharray:none;stroke-opacity:1"
           id="path8202"
           inkscape:connector-curvature="0" />
      </g>
    </g>
    <g
       transform="matrix(0.35277777,0,0,-0.35277777,-24.435758,291.42485)"
       id="g8204">
      <g
         id="g8206"
         clip-path="url(#clipPath8210)">
        <path
           d="m 150,344.25 v -84"
           style="fill:none;stroke:#292934;stroke-width:1.5;stroke-linecap:butt;stroke-linejoin:round;stroke-miterlimit:8;stroke-dasharray:none;stroke-opacity:1"
           id="path8212"
           inkscape:connector-curvature="0" />
      </g>
    </g>
    <path
       d="m 27.556629,170.37974 c 0,-0.44097 0.472722,-0.79375 1.058333,-0.79375 0.582083,0 1.058333,0.35278 1.058333,0.79375 0,0.43745 -0.47625,0.79375 -1.058333,0.79375 -0.585611,0 -1.058333,-0.3563 -1.058333,-0.79375 z"
       style="fill:#292934;fill-opacity:1;fill-rule:evenodd;stroke:none;stroke-width:0.35277775"
       id="path8214"
       inkscape:connector-curvature="0" />
    <path
       d="m 27.556629,170.37974 c 0,-0.44097 0.472722,-0.79375 1.058333,-0.79375 0.582083,0 1.058333,0.35278 1.058333,0.79375 0,0.43745 -0.47625,0.79375 -1.058333,0.79375 -0.585611,0 -1.058333,-0.3563 -1.058333,-0.79375 z"
       style="fill:none;stroke:#292934;stroke-width:0.2648479;stroke-linecap:butt;stroke-linejoin:round;stroke-miterlimit:8;stroke-dasharray:none;stroke-opacity:1"
       id="path8216"
       inkscape:connector-curvature="0" />
  </g>
</svg>
